<?xml version="1.0" encoding="UTF-8" standalone="no"?>
<!DOCTYPE svg PUBLIC "-//W3C//DTD SVG 1.1//EN"
 "http://www.w3.org/Graphics/SVG/1.1/DTD/svg11.dtd">
<!-- Generated by graphviz version 2.40.1 (20161225.0304)
 -->
<!-- Title: G Pages: 1 -->
<svg width="239pt" height="337pt"
 viewBox="0.00 0.00 238.50 337.00" xmlns="http://www.w3.org/2000/svg" xmlns:xlink="http://www.w3.org/1999/xlink">
<g id="graph0" class="graph" transform="scale(1 1) rotate(0) translate(4 333)">
<title>G</title>
<polygon fill="#ffffff" stroke="transparent" points="-4,4 -4,-333 234.5,-333 234.5,4 -4,4"/>
<!-- 140593750047056 -->
<g id="node1" class="node">
<title>140593750047056</title>
<polygon fill="none" stroke="#000000" points="89,-292.5 89,-328.5 166,-328.5 166,-292.5 89,-292.5"/>
<text text-anchor="middle" x="127.5" y="-306.8" font-family="Times,serif" font-size="14.00" fill="#000000">InputLayer</text>
</g>
<!-- 140593750045456 -->
<g id="node2" class="node">
<title>140593750045456</title>
<polygon fill="none" stroke="#000000" points="47.5,-219.5 47.5,-255.5 109.5,-255.5 109.5,-219.5 47.5,-219.5"/>
<text text-anchor="middle" x="78.5" y="-233.8" font-family="Times,serif" font-size="14.00" fill="#000000">Conv1D</text>
</g>
<!-- 140593750047056&#45;&gt;140593750045456 -->
<g id="edge1" class="edge">
<title>140593750047056&#45;&gt;140593750045456</title>
<path fill="none" stroke="#000000" d="M115.3876,-292.4551C109.6159,-283.8564 102.5995,-273.4034 96.2418,-263.9316"/>
<polygon fill="#000000" stroke="#000000" points="99.1222,-261.9427 90.6428,-255.5904 93.3101,-265.844 99.1222,-261.9427"/>
</g>
<!-- 140593749495056 -->
<g id="node3" class="node">
<title>140593749495056</title>
<polygon fill="none" stroke="#000000" points="132.5,-219.5 132.5,-255.5 230.5,-255.5 230.5,-219.5 132.5,-219.5"/>
<text text-anchor="middle" x="181.5" y="-233.8" font-family="Times,serif" font-size="14.00" fill="#000000">CuDNNLSTM</text>
</g>
<!-- 140593750047056&#45;&gt;140593749495056 -->
<g id="edge2" class="edge">
<title>140593750047056&#45;&gt;140593749495056</title>
<path fill="none" stroke="#000000" d="M140.8483,-292.4551C147.2739,-283.7686 155.0993,-273.1898 162.1621,-263.642"/>
<polygon fill="#000000" stroke="#000000" points="164.9849,-265.7113 168.1181,-255.5904 159.3572,-261.5484 164.9849,-265.7113"/>
</g>
<!-- 140593749494864 -->
<g id="node4" class="node">
<title>140593749494864</title>
<polygon fill="none" stroke="#000000" points="0,-146.5 0,-182.5 137,-182.5 137,-146.5 0,-146.5"/>
<text text-anchor="middle" x="68.5" y="-160.8" font-family="Times,serif" font-size="14.00" fill="#000000">GlobalMaxPooling1D</text>
</g>
<!-- 140593750045456&#45;&gt;140593749494864 -->
<g id="edge3" class="edge">
<title>140593750045456&#45;&gt;140593749494864</title>
<path fill="none" stroke="#000000" d="M76.0281,-219.4551C74.9223,-211.3828 73.5927,-201.6764 72.3605,-192.6817"/>
<polygon fill="#000000" stroke="#000000" points="75.803,-192.0228 70.9781,-182.5904 68.8678,-192.9729 75.803,-192.0228"/>
</g>
<!-- 140593749452560 -->
<g id="node5" class="node">
<title>140593749452560</title>
<polygon fill="none" stroke="#000000" points="155.5,-146.5 155.5,-182.5 217.5,-182.5 217.5,-146.5 155.5,-146.5"/>
<text text-anchor="middle" x="186.5" y="-160.8" font-family="Times,serif" font-size="14.00" fill="#000000">Dropout</text>
</g>
<!-- 140593749495056&#45;&gt;140593749452560 -->
<g id="edge4" class="edge">
<title>140593749495056&#45;&gt;140593749452560</title>
<path fill="none" stroke="#000000" d="M182.736,-219.4551C183.2888,-211.3828 183.9537,-201.6764 184.5697,-192.6817"/>
<polygon fill="#000000" stroke="#000000" points="188.0693,-192.8062 185.2609,-182.5904 181.0857,-192.3278 188.0693,-192.8062"/>
</g>
<!-- 140593749594512 -->
<g id="node6" class="node">
<title>140593749594512</title>
<polygon fill="none" stroke="#000000" points="86,-73.5 86,-109.5 169,-109.5 169,-73.5 86,-73.5"/>
<text text-anchor="middle" x="127.5" y="-87.8" font-family="Times,serif" font-size="14.00" fill="#000000">Concatenate</text>
</g>
<!-- 140593749494864&#45;&gt;140593749594512 -->
<g id="edge5" class="edge">
<title>140593749494864&#45;&gt;140593749594512</title>
<path fill="none" stroke="#000000" d="M83.0843,-146.4551C90.1048,-137.7686 98.6548,-127.1898 106.3715,-117.642"/>
<polygon fill="#000000" stroke="#000000" points="109.3152,-119.5678 112.879,-109.5904 103.871,-115.1677 109.3152,-119.5678"/>
</g>
<!-- 140593749452560&#45;&gt;140593749594512 -->
<g id="edge6" class="edge">
<title>140593749452560&#45;&gt;140593749594512</title>
<path fill="none" stroke="#000000" d="M171.9157,-146.4551C164.8952,-137.7686 156.3452,-127.1898 148.6285,-117.642"/>
<polygon fill="#000000" stroke="#000000" points="151.129,-115.1677 142.121,-109.5904 145.6848,-119.5678 151.129,-115.1677"/>
</g>
<!-- 140593749594960 -->
<g id="node7" class="node">
<title>140593749594960</title>
<polygon fill="none" stroke="#000000" points="100.5,-.5 100.5,-36.5 154.5,-36.5 154.5,-.5 100.5,-.5"/>
<text text-anchor="middle" x="127.5" y="-14.8" font-family="Times,serif" font-size="14.00" fill="#000000">Dense</text>
</g>
<!-- 140593749594512&#45;&gt;140593749594960 -->
<g id="edge7" class="edge">
<title>140593749594512&#45;&gt;140593749594960</title>
<path fill="none" stroke="#000000" d="M127.5,-73.4551C127.5,-65.3828 127.5,-55.6764 127.5,-46.6817"/>
<polygon fill="#000000" stroke="#000000" points="131.0001,-46.5903 127.5,-36.5904 124.0001,-46.5904 131.0001,-46.5903"/>
</g>
</g>
</svg>
