<?xml version="1.0" encoding="UTF-8" standalone="no"?>
<!DOCTYPE svg PUBLIC "-//W3C//DTD SVG 1.1//EN"
 "http://www.w3.org/Graphics/SVG/1.1/DTD/svg11.dtd">
<!-- Generated by graphviz version 2.40.1 (20161225.0304)
 -->
<!-- Title: G Pages: 1 -->
<svg width="234pt" height="337pt"
 viewBox="0.00 0.00 233.50 337.00" xmlns="http://www.w3.org/2000/svg" xmlns:xlink="http://www.w3.org/1999/xlink">
<g id="graph0" class="graph" transform="scale(1 1) rotate(0) translate(4 333)">
<title>G</title>
<polygon fill="#ffffff" stroke="transparent" points="-4,4 -4,-333 229.5,-333 229.5,4 -4,4"/>
<!-- 140593748323024 -->
<g id="node1" class="node">
<title>140593748323024</title>
<polygon fill="none" stroke="#000000" points="89,-292.5 89,-328.5 166,-328.5 166,-292.5 89,-292.5"/>
<text text-anchor="middle" x="127.5" y="-306.8" font-family="Times,serif" font-size="14.00" fill="#000000">InputLayer</text>
</g>
<!-- 140593748323216 -->
<g id="node2" class="node">
<title>140593748323216</title>
<polygon fill="none" stroke="#000000" points="49.5,-219.5 49.5,-255.5 111.5,-255.5 111.5,-219.5 49.5,-219.5"/>
<text text-anchor="middle" x="80.5" y="-233.8" font-family="Times,serif" font-size="14.00" fill="#000000">Conv1D</text>
</g>
<!-- 140593748323024&#45;&gt;140593748323216 -->
<g id="edge1" class="edge">
<title>140593748323024&#45;&gt;140593748323216</title>
<path fill="none" stroke="#000000" d="M115.882,-292.4551C110.4024,-283.9441 103.7531,-273.6165 97.7045,-264.2219"/>
<polygon fill="#000000" stroke="#000000" points="100.5035,-262.1037 92.1472,-255.5904 94.6178,-265.8931 100.5035,-262.1037"/>
</g>
<!-- 140593748324112 -->
<g id="node3" class="node">
<title>140593748324112</title>
<polygon fill="none" stroke="#000000" points="135.5,-219.5 135.5,-255.5 225.5,-255.5 225.5,-219.5 135.5,-219.5"/>
<text text-anchor="middle" x="180.5" y="-233.8" font-family="Times,serif" font-size="14.00" fill="#000000">CuDNNGRU</text>
</g>
<!-- 140593748323024&#45;&gt;140593748324112 -->
<g id="edge2" class="edge">
<title>140593748323024&#45;&gt;140593748324112</title>
<path fill="none" stroke="#000000" d="M140.6011,-292.4551C146.844,-283.8564 154.4332,-273.4034 161.3099,-263.9316"/>
<polygon fill="#000000" stroke="#000000" points="164.323,-265.7388 167.3659,-255.5904 158.6585,-261.6262 164.323,-265.7388"/>
</g>
<!-- 140593748323728 -->
<g id="node4" class="node">
<title>140593748323728</title>
<polygon fill="none" stroke="#000000" points="0,-146.5 0,-182.5 137,-182.5 137,-146.5 0,-146.5"/>
<text text-anchor="middle" x="68.5" y="-160.8" font-family="Times,serif" font-size="14.00" fill="#000000">GlobalMaxPooling1D</text>
</g>
<!-- 140593748323216&#45;&gt;140593748323728 -->
<g id="edge3" class="edge">
<title>140593748323216&#45;&gt;140593748323728</title>
<path fill="none" stroke="#000000" d="M77.5337,-219.4551C76.2068,-211.3828 74.6112,-201.6764 73.1326,-192.6817"/>
<polygon fill="#000000" stroke="#000000" points="76.5496,-191.8902 71.4738,-182.5904 69.6423,-193.0257 76.5496,-191.8902"/>
</g>
<!-- 140593747913040 -->
<g id="node5" class="node">
<title>140593747913040</title>
<polygon fill="none" stroke="#000000" points="155.5,-146.5 155.5,-182.5 217.5,-182.5 217.5,-146.5 155.5,-146.5"/>
<text text-anchor="middle" x="186.5" y="-160.8" font-family="Times,serif" font-size="14.00" fill="#000000">Dropout</text>
</g>
<!-- 140593748324112&#45;&gt;140593747913040 -->
<g id="edge4" class="edge">
<title>140593748324112&#45;&gt;140593747913040</title>
<path fill="none" stroke="#000000" d="M181.9831,-219.4551C182.6466,-211.3828 183.4444,-201.6764 184.1837,-192.6817"/>
<polygon fill="#000000" stroke="#000000" points="187.6821,-192.8435 185.0131,-182.5904 180.7056,-192.27 187.6821,-192.8435"/>
</g>
<!-- 140593748322320 -->
<g id="node6" class="node">
<title>140593748322320</title>
<polygon fill="none" stroke="#000000" points="86,-73.5 86,-109.5 169,-109.5 169,-73.5 86,-73.5"/>
<text text-anchor="middle" x="127.5" y="-87.8" font-family="Times,serif" font-size="14.00" fill="#000000">Concatenate</text>
</g>
<!-- 140593748323728&#45;&gt;140593748322320 -->
<g id="edge5" class="edge">
<title>140593748323728&#45;&gt;140593748322320</title>
<path fill="none" stroke="#000000" d="M83.0843,-146.4551C90.1048,-137.7686 98.6548,-127.1898 106.3715,-117.642"/>
<polygon fill="#000000" stroke="#000000" points="109.3152,-119.5678 112.879,-109.5904 103.871,-115.1677 109.3152,-119.5678"/>
</g>
<!-- 140593747913040&#45;&gt;140593748322320 -->
<g id="edge6" class="edge">
<title>140593747913040&#45;&gt;140593748322320</title>
<path fill="none" stroke="#000000" d="M171.9157,-146.4551C164.8952,-137.7686 156.3452,-127.1898 148.6285,-117.642"/>
<polygon fill="#000000" stroke="#000000" points="151.129,-115.1677 142.121,-109.5904 145.6848,-119.5678 151.129,-115.1677"/>
</g>
<!-- 140593748321616 -->
<g id="node7" class="node">
<title>140593748321616</title>
<polygon fill="none" stroke="#000000" points="100.5,-.5 100.5,-36.5 154.5,-36.5 154.5,-.5 100.5,-.5"/>
<text text-anchor="middle" x="127.5" y="-14.8" font-family="Times,serif" font-size="14.00" fill="#000000">Dense</text>
</g>
<!-- 140593748322320&#45;&gt;140593748321616 -->
<g id="edge7" class="edge">
<title>140593748322320&#45;&gt;140593748321616</title>
<path fill="none" stroke="#000000" d="M127.5,-73.4551C127.5,-65.3828 127.5,-55.6764 127.5,-46.6817"/>
<polygon fill="#000000" stroke="#000000" points="131.0001,-46.5903 127.5,-36.5904 124.0001,-46.5904 131.0001,-46.5903"/>
</g>
</g>
</svg>
