<?xml version="1.0" encoding="UTF-8" standalone="no"?>
<!DOCTYPE svg PUBLIC "-//W3C//DTD SVG 1.1//EN"
 "http://www.w3.org/Graphics/SVG/1.1/DTD/svg11.dtd">
<!-- Generated by graphviz version 2.40.1 (20161225.0304)
 -->
<!-- Title: G Pages: 1 -->
<svg width="166pt" height="848pt"
 viewBox="0.00 0.00 166.00 848.00" xmlns="http://www.w3.org/2000/svg" xmlns:xlink="http://www.w3.org/1999/xlink">
<g id="graph0" class="graph" transform="scale(1 1) rotate(0) translate(4 844)">
<title>G</title>
<polygon fill="#ffffff" stroke="transparent" points="-4,4 -4,-844 162,-844 162,4 -4,4"/>
<!-- 140593935268432 -->
<g id="node1" class="node">
<title>140593935268432</title>
<polygon fill="none" stroke="#000000" points="40.5,-803.5 40.5,-839.5 117.5,-839.5 117.5,-803.5 40.5,-803.5"/>
<text text-anchor="middle" x="79" y="-817.8" font-family="Times,serif" font-size="14.00" fill="#000000">InputLayer</text>
</g>
<!-- 140593935268816 -->
<g id="node2" class="node">
<title>140593935268816</title>
<polygon fill="none" stroke="#000000" points="48,-730.5 48,-766.5 110,-766.5 110,-730.5 48,-730.5"/>
<text text-anchor="middle" x="79" y="-744.8" font-family="Times,serif" font-size="14.00" fill="#000000">Conv1D</text>
</g>
<!-- 140593935268432&#45;&gt;140593935268816 -->
<g id="edge1" class="edge">
<title>140593935268432&#45;&gt;140593935268816</title>
<path fill="none" stroke="#000000" d="M79,-803.4551C79,-795.3828 79,-785.6764 79,-776.6817"/>
<polygon fill="#000000" stroke="#000000" points="82.5001,-776.5903 79,-766.5904 75.5001,-776.5904 82.5001,-776.5903"/>
</g>
<!-- 140593935268752 -->
<g id="node3" class="node">
<title>140593935268752</title>
<polygon fill="none" stroke="#000000" points="15.5,-657.5 15.5,-693.5 142.5,-693.5 142.5,-657.5 15.5,-657.5"/>
<text text-anchor="middle" x="79" y="-671.8" font-family="Times,serif" font-size="14.00" fill="#000000">BatchNormalization</text>
</g>
<!-- 140593935268816&#45;&gt;140593935268752 -->
<g id="edge2" class="edge">
<title>140593935268816&#45;&gt;140593935268752</title>
<path fill="none" stroke="#000000" d="M79,-730.4551C79,-722.3828 79,-712.6764 79,-703.6817"/>
<polygon fill="#000000" stroke="#000000" points="82.5001,-703.5903 79,-693.5904 75.5001,-703.5904 82.5001,-703.5903"/>
</g>
<!-- 140593935269200 -->
<g id="node4" class="node">
<title>140593935269200</title>
<polygon fill="none" stroke="#000000" points="52,-584.5 52,-620.5 106,-620.5 106,-584.5 52,-584.5"/>
<text text-anchor="middle" x="79" y="-598.8" font-family="Times,serif" font-size="14.00" fill="#000000">ReLU</text>
</g>
<!-- 140593935268752&#45;&gt;140593935269200 -->
<g id="edge3" class="edge">
<title>140593935268752&#45;&gt;140593935269200</title>
<path fill="none" stroke="#000000" d="M79,-657.4551C79,-649.3828 79,-639.6764 79,-630.6817"/>
<polygon fill="#000000" stroke="#000000" points="82.5001,-630.5903 79,-620.5904 75.5001,-630.5904 82.5001,-630.5903"/>
</g>
<!-- 140593930393232 -->
<g id="node5" class="node">
<title>140593930393232</title>
<polygon fill="none" stroke="#000000" points="48,-511.5 48,-547.5 110,-547.5 110,-511.5 48,-511.5"/>
<text text-anchor="middle" x="79" y="-525.8" font-family="Times,serif" font-size="14.00" fill="#000000">Conv1D</text>
</g>
<!-- 140593935269200&#45;&gt;140593930393232 -->
<g id="edge4" class="edge">
<title>140593935269200&#45;&gt;140593930393232</title>
<path fill="none" stroke="#000000" d="M79,-584.4551C79,-576.3828 79,-566.6764 79,-557.6817"/>
<polygon fill="#000000" stroke="#000000" points="82.5001,-557.5903 79,-547.5904 75.5001,-557.5904 82.5001,-557.5903"/>
</g>
<!-- 140593930057168 -->
<g id="node6" class="node">
<title>140593930057168</title>
<polygon fill="none" stroke="#000000" points="15.5,-438.5 15.5,-474.5 142.5,-474.5 142.5,-438.5 15.5,-438.5"/>
<text text-anchor="middle" x="79" y="-452.8" font-family="Times,serif" font-size="14.00" fill="#000000">BatchNormalization</text>
</g>
<!-- 140593930393232&#45;&gt;140593930057168 -->
<g id="edge5" class="edge">
<title>140593930393232&#45;&gt;140593930057168</title>
<path fill="none" stroke="#000000" d="M79,-511.4551C79,-503.3828 79,-493.6764 79,-484.6817"/>
<polygon fill="#000000" stroke="#000000" points="82.5001,-484.5903 79,-474.5904 75.5001,-484.5904 82.5001,-484.5903"/>
</g>
<!-- 140593930058448 -->
<g id="node7" class="node">
<title>140593930058448</title>
<polygon fill="none" stroke="#000000" points="52,-365.5 52,-401.5 106,-401.5 106,-365.5 52,-365.5"/>
<text text-anchor="middle" x="79" y="-379.8" font-family="Times,serif" font-size="14.00" fill="#000000">ReLU</text>
</g>
<!-- 140593930057168&#45;&gt;140593930058448 -->
<g id="edge6" class="edge">
<title>140593930057168&#45;&gt;140593930058448</title>
<path fill="none" stroke="#000000" d="M79,-438.4551C79,-430.3828 79,-420.6764 79,-411.6817"/>
<polygon fill="#000000" stroke="#000000" points="82.5001,-411.5903 79,-401.5904 75.5001,-411.5904 82.5001,-411.5903"/>
</g>
<!-- 140593929689168 -->
<g id="node8" class="node">
<title>140593929689168</title>
<polygon fill="none" stroke="#000000" points="48,-292.5 48,-328.5 110,-328.5 110,-292.5 48,-292.5"/>
<text text-anchor="middle" x="79" y="-306.8" font-family="Times,serif" font-size="14.00" fill="#000000">Conv1D</text>
</g>
<!-- 140593930058448&#45;&gt;140593929689168 -->
<g id="edge7" class="edge">
<title>140593930058448&#45;&gt;140593929689168</title>
<path fill="none" stroke="#000000" d="M79,-365.4551C79,-357.3828 79,-347.6764 79,-338.6817"/>
<polygon fill="#000000" stroke="#000000" points="82.5001,-338.5903 79,-328.5904 75.5001,-338.5904 82.5001,-338.5903"/>
</g>
<!-- 140593929731088 -->
<g id="node9" class="node">
<title>140593929731088</title>
<polygon fill="none" stroke="#000000" points="15.5,-219.5 15.5,-255.5 142.5,-255.5 142.5,-219.5 15.5,-219.5"/>
<text text-anchor="middle" x="79" y="-233.8" font-family="Times,serif" font-size="14.00" fill="#000000">BatchNormalization</text>
</g>
<!-- 140593929689168&#45;&gt;140593929731088 -->
<g id="edge8" class="edge">
<title>140593929689168&#45;&gt;140593929731088</title>
<path fill="none" stroke="#000000" d="M79,-292.4551C79,-284.3828 79,-274.6764 79,-265.6817"/>
<polygon fill="#000000" stroke="#000000" points="82.5001,-265.5903 79,-255.5904 75.5001,-265.5904 82.5001,-265.5903"/>
</g>
<!-- 140593929731728 -->
<g id="node10" class="node">
<title>140593929731728</title>
<polygon fill="none" stroke="#000000" points="52,-146.5 52,-182.5 106,-182.5 106,-146.5 52,-146.5"/>
<text text-anchor="middle" x="79" y="-160.8" font-family="Times,serif" font-size="14.00" fill="#000000">ReLU</text>
</g>
<!-- 140593929731088&#45;&gt;140593929731728 -->
<g id="edge9" class="edge">
<title>140593929731088&#45;&gt;140593929731728</title>
<path fill="none" stroke="#000000" d="M79,-219.4551C79,-211.3828 79,-201.6764 79,-192.6817"/>
<polygon fill="#000000" stroke="#000000" points="82.5001,-192.5903 79,-182.5904 75.5001,-192.5904 82.5001,-192.5903"/>
</g>
<!-- 140593928802704 -->
<g id="node11" class="node">
<title>140593928802704</title>
<polygon fill="none" stroke="#000000" points="0,-73.5 0,-109.5 158,-109.5 158,-73.5 0,-73.5"/>
<text text-anchor="middle" x="79" y="-87.8" font-family="Times,serif" font-size="14.00" fill="#000000">GlobalAveragePooling1D</text>
</g>
<!-- 140593929731728&#45;&gt;140593928802704 -->
<g id="edge10" class="edge">
<title>140593929731728&#45;&gt;140593928802704</title>
<path fill="none" stroke="#000000" d="M79,-146.4551C79,-138.3828 79,-128.6764 79,-119.6817"/>
<polygon fill="#000000" stroke="#000000" points="82.5001,-119.5903 79,-109.5904 75.5001,-119.5904 82.5001,-119.5903"/>
</g>
<!-- 140593928805904 -->
<g id="node12" class="node">
<title>140593928805904</title>
<polygon fill="none" stroke="#000000" points="52,-.5 52,-36.5 106,-36.5 106,-.5 52,-.5"/>
<text text-anchor="middle" x="79" y="-14.8" font-family="Times,serif" font-size="14.00" fill="#000000">Dense</text>
</g>
<!-- 140593928802704&#45;&gt;140593928805904 -->
<g id="edge11" class="edge">
<title>140593928802704&#45;&gt;140593928805904</title>
<path fill="none" stroke="#000000" d="M79,-73.4551C79,-65.3828 79,-55.6764 79,-46.6817"/>
<polygon fill="#000000" stroke="#000000" points="82.5001,-46.5903 79,-36.5904 75.5001,-46.5904 82.5001,-46.5903"/>
</g>
</g>
</svg>
