<?xml version="1.0" encoding="UTF-8" standalone="no"?>
<!DOCTYPE svg PUBLIC "-//W3C//DTD SVG 1.1//EN"
 "http://www.w3.org/Graphics/SVG/1.1/DTD/svg11.dtd">
<!-- Generated by graphviz version 2.40.1 (20161225.0304)
 -->
<!-- Title: G Pages: 1 -->
<svg width="145pt" height="264pt"
 viewBox="0.00 0.00 145.00 264.00" xmlns="http://www.w3.org/2000/svg" xmlns:xlink="http://www.w3.org/1999/xlink">
<g id="graph0" class="graph" transform="scale(1 1) rotate(0) translate(4 260)">
<title>G</title>
<polygon fill="#ffffff" stroke="transparent" points="-4,4 -4,-260 141,-260 141,4 -4,4"/>
<!-- 140593753582160 -->
<g id="node1" class="node">
<title>140593753582160</title>
<polygon fill="none" stroke="#000000" points="30,-219.5 30,-255.5 107,-255.5 107,-219.5 30,-219.5"/>
<text text-anchor="middle" x="68.5" y="-233.8" font-family="Times,serif" font-size="14.00" fill="#000000">InputLayer</text>
</g>
<!-- 140593750547472 -->
<g id="node2" class="node">
<title>140593750547472</title>
<polygon fill="none" stroke="#000000" points="37.5,-146.5 37.5,-182.5 99.5,-182.5 99.5,-146.5 37.5,-146.5"/>
<text text-anchor="middle" x="68.5" y="-160.8" font-family="Times,serif" font-size="14.00" fill="#000000">Conv1D</text>
</g>
<!-- 140593753582160&#45;&gt;140593750547472 -->
<g id="edge1" class="edge">
<title>140593753582160&#45;&gt;140593750547472</title>
<path fill="none" stroke="#000000" d="M68.5,-219.4551C68.5,-211.3828 68.5,-201.6764 68.5,-192.6817"/>
<polygon fill="#000000" stroke="#000000" points="72.0001,-192.5903 68.5,-182.5904 65.0001,-192.5904 72.0001,-192.5903"/>
</g>
<!-- 140593751462672 -->
<g id="node3" class="node">
<title>140593751462672</title>
<polygon fill="none" stroke="#000000" points="0,-73.5 0,-109.5 137,-109.5 137,-73.5 0,-73.5"/>
<text text-anchor="middle" x="68.5" y="-87.8" font-family="Times,serif" font-size="14.00" fill="#000000">GlobalMaxPooling1D</text>
</g>
<!-- 140593750547472&#45;&gt;140593751462672 -->
<g id="edge2" class="edge">
<title>140593750547472&#45;&gt;140593751462672</title>
<path fill="none" stroke="#000000" d="M68.5,-146.4551C68.5,-138.3828 68.5,-128.6764 68.5,-119.6817"/>
<polygon fill="#000000" stroke="#000000" points="72.0001,-119.5903 68.5,-109.5904 65.0001,-119.5904 72.0001,-119.5903"/>
</g>
<!-- 140593749998224 -->
<g id="node4" class="node">
<title>140593749998224</title>
<polygon fill="none" stroke="#000000" points="41.5,-.5 41.5,-36.5 95.5,-36.5 95.5,-.5 41.5,-.5"/>
<text text-anchor="middle" x="68.5" y="-14.8" font-family="Times,serif" font-size="14.00" fill="#000000">Dense</text>
</g>
<!-- 140593751462672&#45;&gt;140593749998224 -->
<g id="edge3" class="edge">
<title>140593751462672&#45;&gt;140593749998224</title>
<path fill="none" stroke="#000000" d="M68.5,-73.4551C68.5,-65.3828 68.5,-55.6764 68.5,-46.6817"/>
<polygon fill="#000000" stroke="#000000" points="72.0001,-46.5903 68.5,-36.5904 65.0001,-46.5904 72.0001,-46.5903"/>
</g>
</g>
</svg>
