<?xml version="1.0" encoding="UTF-8" standalone="no"?>
<!DOCTYPE svg PUBLIC "-//W3C//DTD SVG 1.1//EN"
 "http://www.w3.org/Graphics/SVG/1.1/DTD/svg11.dtd">
<!-- Generated by graphviz version 2.40.1 (20161225.0304)
 -->
<!-- Title: G Pages: 1 -->
<svg width="244pt" height="921pt"
 viewBox="0.00 0.00 243.50 921.00" xmlns="http://www.w3.org/2000/svg" xmlns:xlink="http://www.w3.org/1999/xlink">
<g id="graph0" class="graph" transform="scale(1 1) rotate(0) translate(4 917)">
<title>G</title>
<polygon fill="#ffffff" stroke="transparent" points="-4,4 -4,-917 239.5,-917 239.5,4 -4,4"/>
<!-- 140593753282640 -->
<g id="node1" class="node">
<title>140593753282640</title>
<polygon fill="none" stroke="#000000" points="88,-876.5 88,-912.5 165,-912.5 165,-876.5 88,-876.5"/>
<text text-anchor="middle" x="126.5" y="-890.8" font-family="Times,serif" font-size="14.00" fill="#000000">InputLayer</text>
</g>
<!-- 140593753282832 -->
<g id="node2" class="node">
<title>140593753282832</title>
<polygon fill="none" stroke="#000000" points="66.5,-803.5 66.5,-839.5 128.5,-839.5 128.5,-803.5 66.5,-803.5"/>
<text text-anchor="middle" x="97.5" y="-817.8" font-family="Times,serif" font-size="14.00" fill="#000000">Conv1D</text>
</g>
<!-- 140593753282640&#45;&gt;140593753282832 -->
<g id="edge1" class="edge">
<title>140593753282640&#45;&gt;140593753282832</title>
<path fill="none" stroke="#000000" d="M119.3315,-876.4551C116.055,-868.2074 112.1007,-858.2536 108.4629,-849.0962"/>
<polygon fill="#000000" stroke="#000000" points="111.6313,-847.5917 104.6866,-839.5904 105.1259,-850.1761 111.6313,-847.5917"/>
</g>
<!-- 140593752025744 -->
<g id="node11" class="node">
<title>140593752025744</title>
<polygon fill="none" stroke="#000000" points="145.5,-730.5 145.5,-766.5 235.5,-766.5 235.5,-730.5 145.5,-730.5"/>
<text text-anchor="middle" x="190.5" y="-744.8" font-family="Times,serif" font-size="14.00" fill="#000000">CuDNNGRU</text>
</g>
<!-- 140593753282640&#45;&gt;140593752025744 -->
<g id="edge10" class="edge">
<title>140593753282640&#45;&gt;140593752025744</title>
<path fill="none" stroke="#000000" d="M134.4762,-876.3042C145.4948,-851.1682 165.4686,-805.6029 178.3499,-776.2175"/>
<polygon fill="#000000" stroke="#000000" points="181.614,-777.489 182.4232,-766.9251 175.2029,-774.6786 181.614,-777.489"/>
</g>
<!-- 140593753830288 -->
<g id="node3" class="node">
<title>140593753830288</title>
<polygon fill="none" stroke="#000000" points="0,-730.5 0,-766.5 127,-766.5 127,-730.5 0,-730.5"/>
<text text-anchor="middle" x="63.5" y="-744.8" font-family="Times,serif" font-size="14.00" fill="#000000">BatchNormalization</text>
</g>
<!-- 140593753282832&#45;&gt;140593753830288 -->
<g id="edge2" class="edge">
<title>140593753282832&#45;&gt;140593753830288</title>
<path fill="none" stroke="#000000" d="M89.0955,-803.4551C85.2132,-795.1196 80.5194,-785.0416 76.217,-775.8042"/>
<polygon fill="#000000" stroke="#000000" points="79.3205,-774.1776 71.9256,-766.5904 72.975,-777.1331 79.3205,-774.1776"/>
</g>
<!-- 140593753297040 -->
<g id="node4" class="node">
<title>140593753297040</title>
<polygon fill="none" stroke="#000000" points="36.5,-657.5 36.5,-693.5 90.5,-693.5 90.5,-657.5 36.5,-657.5"/>
<text text-anchor="middle" x="63.5" y="-671.8" font-family="Times,serif" font-size="14.00" fill="#000000">ReLU</text>
</g>
<!-- 140593753830288&#45;&gt;140593753297040 -->
<g id="edge3" class="edge">
<title>140593753830288&#45;&gt;140593753297040</title>
<path fill="none" stroke="#000000" d="M63.5,-730.4551C63.5,-722.3828 63.5,-712.6764 63.5,-703.6817"/>
<polygon fill="#000000" stroke="#000000" points="67.0001,-703.5903 63.5,-693.5904 60.0001,-703.5904 67.0001,-703.5903"/>
</g>
<!-- 140593753582480 -->
<g id="node5" class="node">
<title>140593753582480</title>
<polygon fill="none" stroke="#000000" points="32.5,-584.5 32.5,-620.5 94.5,-620.5 94.5,-584.5 32.5,-584.5"/>
<text text-anchor="middle" x="63.5" y="-598.8" font-family="Times,serif" font-size="14.00" fill="#000000">Conv1D</text>
</g>
<!-- 140593753297040&#45;&gt;140593753582480 -->
<g id="edge4" class="edge">
<title>140593753297040&#45;&gt;140593753582480</title>
<path fill="none" stroke="#000000" d="M63.5,-657.4551C63.5,-649.3828 63.5,-639.6764 63.5,-630.6817"/>
<polygon fill="#000000" stroke="#000000" points="67.0001,-630.5903 63.5,-620.5904 60.0001,-630.5904 67.0001,-630.5903"/>
</g>
<!-- 140593753282128 -->
<g id="node6" class="node">
<title>140593753282128</title>
<polygon fill="none" stroke="#000000" points="0,-511.5 0,-547.5 127,-547.5 127,-511.5 0,-511.5"/>
<text text-anchor="middle" x="63.5" y="-525.8" font-family="Times,serif" font-size="14.00" fill="#000000">BatchNormalization</text>
</g>
<!-- 140593753582480&#45;&gt;140593753282128 -->
<g id="edge5" class="edge">
<title>140593753582480&#45;&gt;140593753282128</title>
<path fill="none" stroke="#000000" d="M63.5,-584.4551C63.5,-576.3828 63.5,-566.6764 63.5,-557.6817"/>
<polygon fill="#000000" stroke="#000000" points="67.0001,-557.5903 63.5,-547.5904 60.0001,-557.5904 67.0001,-557.5903"/>
</g>
<!-- 140593753374032 -->
<g id="node7" class="node">
<title>140593753374032</title>
<polygon fill="none" stroke="#000000" points="37.5,-438.5 37.5,-474.5 91.5,-474.5 91.5,-438.5 37.5,-438.5"/>
<text text-anchor="middle" x="64.5" y="-452.8" font-family="Times,serif" font-size="14.00" fill="#000000">ReLU</text>
</g>
<!-- 140593753282128&#45;&gt;140593753374032 -->
<g id="edge6" class="edge">
<title>140593753282128&#45;&gt;140593753374032</title>
<path fill="none" stroke="#000000" d="M63.7472,-511.4551C63.8578,-503.3828 63.9907,-493.6764 64.1139,-484.6817"/>
<polygon fill="#000000" stroke="#000000" points="67.6148,-484.6374 64.2522,-474.5904 60.6154,-484.5414 67.6148,-484.6374"/>
</g>
<!-- 140593752847248 -->
<g id="node8" class="node">
<title>140593752847248</title>
<polygon fill="none" stroke="#000000" points="34.5,-365.5 34.5,-401.5 96.5,-401.5 96.5,-365.5 34.5,-365.5"/>
<text text-anchor="middle" x="65.5" y="-379.8" font-family="Times,serif" font-size="14.00" fill="#000000">Conv1D</text>
</g>
<!-- 140593753374032&#45;&gt;140593752847248 -->
<g id="edge7" class="edge">
<title>140593753374032&#45;&gt;140593752847248</title>
<path fill="none" stroke="#000000" d="M64.7472,-438.4551C64.8578,-430.3828 64.9907,-420.6764 65.1139,-411.6817"/>
<polygon fill="#000000" stroke="#000000" points="68.6148,-411.6374 65.2522,-401.5904 61.6154,-411.5414 68.6148,-411.6374"/>
</g>
<!-- 140593752995536 -->
<g id="node9" class="node">
<title>140593752995536</title>
<polygon fill="none" stroke="#000000" points="4,-292.5 4,-328.5 131,-328.5 131,-292.5 4,-292.5"/>
<text text-anchor="middle" x="67.5" y="-306.8" font-family="Times,serif" font-size="14.00" fill="#000000">BatchNormalization</text>
</g>
<!-- 140593752847248&#45;&gt;140593752995536 -->
<g id="edge8" class="edge">
<title>140593752847248&#45;&gt;140593752995536</title>
<path fill="none" stroke="#000000" d="M65.9944,-365.4551C66.2155,-357.3828 66.4815,-347.6764 66.7279,-338.6817"/>
<polygon fill="#000000" stroke="#000000" points="70.2291,-338.6825 67.0044,-328.5904 63.2317,-338.4907 70.2291,-338.6825"/>
</g>
<!-- 140593752994704 -->
<g id="node10" class="node">
<title>140593752994704</title>
<polygon fill="none" stroke="#000000" points="45.5,-219.5 45.5,-255.5 99.5,-255.5 99.5,-219.5 45.5,-219.5"/>
<text text-anchor="middle" x="72.5" y="-233.8" font-family="Times,serif" font-size="14.00" fill="#000000">ReLU</text>
</g>
<!-- 140593752995536&#45;&gt;140593752994704 -->
<g id="edge9" class="edge">
<title>140593752995536&#45;&gt;140593752994704</title>
<path fill="none" stroke="#000000" d="M68.736,-292.4551C69.2888,-284.3828 69.9537,-274.6764 70.5697,-265.6817"/>
<polygon fill="#000000" stroke="#000000" points="74.0693,-265.8062 71.2609,-255.5904 67.0857,-265.3278 74.0693,-265.8062"/>
</g>
<!-- 140593752467728 -->
<g id="node12" class="node">
<title>140593752467728</title>
<polygon fill="none" stroke="#000000" points="3.5,-146.5 3.5,-182.5 161.5,-182.5 161.5,-146.5 3.5,-146.5"/>
<text text-anchor="middle" x="82.5" y="-160.8" font-family="Times,serif" font-size="14.00" fill="#000000">GlobalAveragePooling1D</text>
</g>
<!-- 140593752994704&#45;&gt;140593752467728 -->
<g id="edge11" class="edge">
<title>140593752994704&#45;&gt;140593752467728</title>
<path fill="none" stroke="#000000" d="M74.9719,-219.4551C76.0777,-211.3828 77.4073,-201.6764 78.6395,-192.6817"/>
<polygon fill="#000000" stroke="#000000" points="82.1322,-192.9729 80.0219,-182.5904 75.197,-192.0228 82.1322,-192.9729"/>
</g>
<!-- 140593751517904 -->
<g id="node13" class="node">
<title>140593751517904</title>
<polygon fill="none" stroke="#000000" points="158.5,-657.5 158.5,-693.5 220.5,-693.5 220.5,-657.5 158.5,-657.5"/>
<text text-anchor="middle" x="189.5" y="-671.8" font-family="Times,serif" font-size="14.00" fill="#000000">Dropout</text>
</g>
<!-- 140593752025744&#45;&gt;140593751517904 -->
<g id="edge12" class="edge">
<title>140593752025744&#45;&gt;140593751517904</title>
<path fill="none" stroke="#000000" d="M190.2528,-730.4551C190.1422,-722.3828 190.0093,-712.6764 189.8861,-703.6817"/>
<polygon fill="#000000" stroke="#000000" points="193.3846,-703.5414 189.7478,-693.5904 186.3852,-703.6374 193.3846,-703.5414"/>
</g>
<!-- 140593927806736 -->
<g id="node14" class="node">
<title>140593927806736</title>
<polygon fill="none" stroke="#000000" points="94,-73.5 94,-109.5 177,-109.5 177,-73.5 94,-73.5"/>
<text text-anchor="middle" x="135.5" y="-87.8" font-family="Times,serif" font-size="14.00" fill="#000000">Concatenate</text>
</g>
<!-- 140593752467728&#45;&gt;140593927806736 -->
<g id="edge13" class="edge">
<title>140593752467728&#45;&gt;140593927806736</title>
<path fill="none" stroke="#000000" d="M95.6011,-146.4551C101.844,-137.8564 109.4332,-127.4034 116.3099,-117.9316"/>
<polygon fill="#000000" stroke="#000000" points="119.323,-119.7388 122.3659,-109.5904 113.6585,-115.6262 119.323,-119.7388"/>
</g>
<!-- 140593751517904&#45;&gt;140593927806736 -->
<g id="edge14" class="edge">
<title>140593751517904&#45;&gt;140593927806736</title>
<path fill="none" stroke="#000000" d="M189.5,-657.062C189.5,-629.3663 189.5,-575.3785 189.5,-529.5 189.5,-529.5 189.5,-529.5 189.5,-237.5 189.5,-195.9658 186.2065,-184.4499 170.5,-146 166.5865,-136.4197 160.9634,-126.684 155.3658,-118.1429"/>
<polygon fill="#000000" stroke="#000000" points="158.1478,-116.0106 149.6143,-109.7312 152.3693,-119.9616 158.1478,-116.0106"/>
</g>
<!-- 140593753981072 -->
<g id="node15" class="node">
<title>140593753981072</title>
<polygon fill="none" stroke="#000000" points="108.5,-.5 108.5,-36.5 162.5,-36.5 162.5,-.5 108.5,-.5"/>
<text text-anchor="middle" x="135.5" y="-14.8" font-family="Times,serif" font-size="14.00" fill="#000000">Dense</text>
</g>
<!-- 140593927806736&#45;&gt;140593753981072 -->
<g id="edge15" class="edge">
<title>140593927806736&#45;&gt;140593753981072</title>
<path fill="none" stroke="#000000" d="M135.5,-73.4551C135.5,-65.3828 135.5,-55.6764 135.5,-46.6817"/>
<polygon fill="#000000" stroke="#000000" points="139.0001,-46.5903 135.5,-36.5904 132.0001,-46.5904 139.0001,-46.5903"/>
</g>
</g>
</svg>
