<?xml version="1.0" encoding="UTF-8" standalone="no"?>
<!DOCTYPE svg PUBLIC "-//W3C//DTD SVG 1.1//EN"
 "http://www.w3.org/Graphics/SVG/1.1/DTD/svg11.dtd">
<!-- Generated by graphviz version 2.40.1 (20161225.0304)
 -->
<!-- Title: G Pages: 1 -->
<svg width="252pt" height="921pt"
 viewBox="0.00 0.00 251.50 921.00" xmlns="http://www.w3.org/2000/svg" xmlns:xlink="http://www.w3.org/1999/xlink">
<g id="graph0" class="graph" transform="scale(1 1) rotate(0) translate(4 917)">
<title>G</title>
<polygon fill="#ffffff" stroke="transparent" points="-4,4 -4,-917 247.5,-917 247.5,4 -4,4"/>
<!-- 140593926849744 -->
<g id="node1" class="node">
<title>140593926849744</title>
<polygon fill="none" stroke="#000000" points="90,-876.5 90,-912.5 167,-912.5 167,-876.5 90,-876.5"/>
<text text-anchor="middle" x="128.5" y="-890.8" font-family="Times,serif" font-size="14.00" fill="#000000">InputLayer</text>
</g>
<!-- 140593926849936 -->
<g id="node2" class="node">
<title>140593926849936</title>
<polygon fill="none" stroke="#000000" points="68.5,-803.5 68.5,-839.5 130.5,-839.5 130.5,-803.5 68.5,-803.5"/>
<text text-anchor="middle" x="99.5" y="-817.8" font-family="Times,serif" font-size="14.00" fill="#000000">Conv1D</text>
</g>
<!-- 140593926849744&#45;&gt;140593926849936 -->
<g id="edge1" class="edge">
<title>140593926849744&#45;&gt;140593926849936</title>
<path fill="none" stroke="#000000" d="M121.3315,-876.4551C118.055,-868.2074 114.1007,-858.2536 110.4629,-849.0962"/>
<polygon fill="#000000" stroke="#000000" points="113.6313,-847.5917 106.6866,-839.5904 107.1259,-850.1761 113.6313,-847.5917"/>
</g>
<!-- 140593927802960 -->
<g id="node11" class="node">
<title>140593927802960</title>
<polygon fill="none" stroke="#000000" points="145.5,-730.5 145.5,-766.5 243.5,-766.5 243.5,-730.5 145.5,-730.5"/>
<text text-anchor="middle" x="194.5" y="-744.8" font-family="Times,serif" font-size="14.00" fill="#000000">CuDNNLSTM</text>
</g>
<!-- 140593926849744&#45;&gt;140593927802960 -->
<g id="edge10" class="edge">
<title>140593926849744&#45;&gt;140593927802960</title>
<path fill="none" stroke="#000000" d="M136.7255,-876.3042C148.0883,-851.1682 168.6863,-805.6029 181.9702,-776.2175"/>
<polygon fill="#000000" stroke="#000000" points="185.2408,-777.4791 186.1708,-766.9251 178.8623,-774.5956 185.2408,-777.4791"/>
</g>
<!-- 140593926850448 -->
<g id="node3" class="node">
<title>140593926850448</title>
<polygon fill="none" stroke="#000000" points="0,-730.5 0,-766.5 127,-766.5 127,-730.5 0,-730.5"/>
<text text-anchor="middle" x="63.5" y="-744.8" font-family="Times,serif" font-size="14.00" fill="#000000">BatchNormalization</text>
</g>
<!-- 140593926849936&#45;&gt;140593926850448 -->
<g id="edge2" class="edge">
<title>140593926849936&#45;&gt;140593926850448</title>
<path fill="none" stroke="#000000" d="M90.6011,-803.4551C86.4905,-795.1196 81.5205,-785.0416 76.9651,-775.8042"/>
<polygon fill="#000000" stroke="#000000" points="79.9833,-774.011 72.4213,-766.5904 73.7052,-777.1071 79.9833,-774.011"/>
</g>
<!-- 140593926850512 -->
<g id="node4" class="node">
<title>140593926850512</title>
<polygon fill="none" stroke="#000000" points="36.5,-657.5 36.5,-693.5 90.5,-693.5 90.5,-657.5 36.5,-657.5"/>
<text text-anchor="middle" x="63.5" y="-671.8" font-family="Times,serif" font-size="14.00" fill="#000000">ReLU</text>
</g>
<!-- 140593926850448&#45;&gt;140593926850512 -->
<g id="edge3" class="edge">
<title>140593926850448&#45;&gt;140593926850512</title>
<path fill="none" stroke="#000000" d="M63.5,-730.4551C63.5,-722.3828 63.5,-712.6764 63.5,-703.6817"/>
<polygon fill="#000000" stroke="#000000" points="67.0001,-703.5903 63.5,-693.5904 60.0001,-703.5904 67.0001,-703.5903"/>
</g>
<!-- 140593926869264 -->
<g id="node5" class="node">
<title>140593926869264</title>
<polygon fill="none" stroke="#000000" points="32.5,-584.5 32.5,-620.5 94.5,-620.5 94.5,-584.5 32.5,-584.5"/>
<text text-anchor="middle" x="63.5" y="-598.8" font-family="Times,serif" font-size="14.00" fill="#000000">Conv1D</text>
</g>
<!-- 140593926850512&#45;&gt;140593926869264 -->
<g id="edge4" class="edge">
<title>140593926850512&#45;&gt;140593926869264</title>
<path fill="none" stroke="#000000" d="M63.5,-657.4551C63.5,-649.3828 63.5,-639.6764 63.5,-630.6817"/>
<polygon fill="#000000" stroke="#000000" points="67.0001,-630.5903 63.5,-620.5904 60.0001,-630.5904 67.0001,-630.5903"/>
</g>
<!-- 140593926925904 -->
<g id="node6" class="node">
<title>140593926925904</title>
<polygon fill="none" stroke="#000000" points="0,-511.5 0,-547.5 127,-547.5 127,-511.5 0,-511.5"/>
<text text-anchor="middle" x="63.5" y="-525.8" font-family="Times,serif" font-size="14.00" fill="#000000">BatchNormalization</text>
</g>
<!-- 140593926869264&#45;&gt;140593926925904 -->
<g id="edge5" class="edge">
<title>140593926869264&#45;&gt;140593926925904</title>
<path fill="none" stroke="#000000" d="M63.5,-584.4551C63.5,-576.3828 63.5,-566.6764 63.5,-557.6817"/>
<polygon fill="#000000" stroke="#000000" points="67.0001,-557.5903 63.5,-547.5904 60.0001,-557.5904 67.0001,-557.5903"/>
</g>
<!-- 140593926994448 -->
<g id="node7" class="node">
<title>140593926994448</title>
<polygon fill="none" stroke="#000000" points="37.5,-438.5 37.5,-474.5 91.5,-474.5 91.5,-438.5 37.5,-438.5"/>
<text text-anchor="middle" x="64.5" y="-452.8" font-family="Times,serif" font-size="14.00" fill="#000000">ReLU</text>
</g>
<!-- 140593926925904&#45;&gt;140593926994448 -->
<g id="edge6" class="edge">
<title>140593926925904&#45;&gt;140593926994448</title>
<path fill="none" stroke="#000000" d="M63.7472,-511.4551C63.8578,-503.3828 63.9907,-493.6764 64.1139,-484.6817"/>
<polygon fill="#000000" stroke="#000000" points="67.6148,-484.6374 64.2522,-474.5904 60.6154,-484.5414 67.6148,-484.6374"/>
</g>
<!-- 140593927132560 -->
<g id="node8" class="node">
<title>140593927132560</title>
<polygon fill="none" stroke="#000000" points="34.5,-365.5 34.5,-401.5 96.5,-401.5 96.5,-365.5 34.5,-365.5"/>
<text text-anchor="middle" x="65.5" y="-379.8" font-family="Times,serif" font-size="14.00" fill="#000000">Conv1D</text>
</g>
<!-- 140593926994448&#45;&gt;140593927132560 -->
<g id="edge7" class="edge">
<title>140593926994448&#45;&gt;140593927132560</title>
<path fill="none" stroke="#000000" d="M64.7472,-438.4551C64.8578,-430.3828 64.9907,-420.6764 65.1139,-411.6817"/>
<polygon fill="#000000" stroke="#000000" points="68.6148,-411.6374 65.2522,-401.5904 61.6154,-411.5414 68.6148,-411.6374"/>
</g>
<!-- 140593927262800 -->
<g id="node9" class="node">
<title>140593927262800</title>
<polygon fill="none" stroke="#000000" points="5,-292.5 5,-328.5 132,-328.5 132,-292.5 5,-292.5"/>
<text text-anchor="middle" x="68.5" y="-306.8" font-family="Times,serif" font-size="14.00" fill="#000000">BatchNormalization</text>
</g>
<!-- 140593927132560&#45;&gt;140593927262800 -->
<g id="edge8" class="edge">
<title>140593927132560&#45;&gt;140593927262800</title>
<path fill="none" stroke="#000000" d="M66.2416,-365.4551C66.5733,-357.3828 66.9722,-347.6764 67.3418,-338.6817"/>
<polygon fill="#000000" stroke="#000000" points="70.8429,-338.7257 67.7566,-328.5904 63.8488,-338.4382 70.8429,-338.7257"/>
</g>
<!-- 140593927578960 -->
<g id="node10" class="node">
<title>140593927578960</title>
<polygon fill="none" stroke="#000000" points="47.5,-219.5 47.5,-255.5 101.5,-255.5 101.5,-219.5 47.5,-219.5"/>
<text text-anchor="middle" x="74.5" y="-233.8" font-family="Times,serif" font-size="14.00" fill="#000000">ReLU</text>
</g>
<!-- 140593927262800&#45;&gt;140593927578960 -->
<g id="edge9" class="edge">
<title>140593927262800&#45;&gt;140593927578960</title>
<path fill="none" stroke="#000000" d="M69.9831,-292.4551C70.6466,-284.3828 71.4444,-274.6764 72.1837,-265.6817"/>
<polygon fill="#000000" stroke="#000000" points="75.6821,-265.8435 73.0131,-255.5904 68.7056,-265.27 75.6821,-265.8435"/>
</g>
<!-- 140593927805136 -->
<g id="node12" class="node">
<title>140593927805136</title>
<polygon fill="none" stroke="#000000" points="7.5,-146.5 7.5,-182.5 165.5,-182.5 165.5,-146.5 7.5,-146.5"/>
<text text-anchor="middle" x="86.5" y="-160.8" font-family="Times,serif" font-size="14.00" fill="#000000">GlobalAveragePooling1D</text>
</g>
<!-- 140593927578960&#45;&gt;140593927805136 -->
<g id="edge11" class="edge">
<title>140593927578960&#45;&gt;140593927805136</title>
<path fill="none" stroke="#000000" d="M77.4663,-219.4551C78.7932,-211.3828 80.3888,-201.6764 81.8674,-192.6817"/>
<polygon fill="#000000" stroke="#000000" points="85.3577,-193.0257 83.5262,-182.5904 78.4504,-191.8902 85.3577,-193.0257"/>
</g>
<!-- 140593925428560 -->
<g id="node13" class="node">
<title>140593925428560</title>
<polygon fill="none" stroke="#000000" points="162.5,-657.5 162.5,-693.5 224.5,-693.5 224.5,-657.5 162.5,-657.5"/>
<text text-anchor="middle" x="193.5" y="-671.8" font-family="Times,serif" font-size="14.00" fill="#000000">Dropout</text>
</g>
<!-- 140593927802960&#45;&gt;140593925428560 -->
<g id="edge12" class="edge">
<title>140593927802960&#45;&gt;140593925428560</title>
<path fill="none" stroke="#000000" d="M194.2528,-730.4551C194.1422,-722.3828 194.0093,-712.6764 193.8861,-703.6817"/>
<polygon fill="#000000" stroke="#000000" points="197.3846,-703.5414 193.7478,-693.5904 190.3852,-703.6374 197.3846,-703.5414"/>
</g>
<!-- 140593925509712 -->
<g id="node14" class="node">
<title>140593925509712</title>
<polygon fill="none" stroke="#000000" points="98,-73.5 98,-109.5 181,-109.5 181,-73.5 98,-73.5"/>
<text text-anchor="middle" x="139.5" y="-87.8" font-family="Times,serif" font-size="14.00" fill="#000000">Concatenate</text>
</g>
<!-- 140593927805136&#45;&gt;140593925509712 -->
<g id="edge13" class="edge">
<title>140593927805136&#45;&gt;140593925509712</title>
<path fill="none" stroke="#000000" d="M99.6011,-146.4551C105.844,-137.8564 113.4332,-127.4034 120.3099,-117.9316"/>
<polygon fill="#000000" stroke="#000000" points="123.323,-119.7388 126.3659,-109.5904 117.6585,-115.6262 123.323,-119.7388"/>
</g>
<!-- 140593925428560&#45;&gt;140593925509712 -->
<g id="edge14" class="edge">
<title>140593925428560&#45;&gt;140593925509712</title>
<path fill="none" stroke="#000000" d="M193.5,-657.062C193.5,-629.3663 193.5,-575.3785 193.5,-529.5 193.5,-529.5 193.5,-529.5 193.5,-237.5 193.5,-195.9658 190.2065,-184.4499 174.5,-146 170.5865,-136.4197 164.9634,-126.684 159.3658,-118.1429"/>
<polygon fill="#000000" stroke="#000000" points="162.1478,-116.0106 153.6143,-109.7312 156.3693,-119.9616 162.1478,-116.0106"/>
</g>
<!-- 140593925509584 -->
<g id="node15" class="node">
<title>140593925509584</title>
<polygon fill="none" stroke="#000000" points="112.5,-.5 112.5,-36.5 166.5,-36.5 166.5,-.5 112.5,-.5"/>
<text text-anchor="middle" x="139.5" y="-14.8" font-family="Times,serif" font-size="14.00" fill="#000000">Dense</text>
</g>
<!-- 140593925509712&#45;&gt;140593925509584 -->
<g id="edge15" class="edge">
<title>140593925509712&#45;&gt;140593925509584</title>
<path fill="none" stroke="#000000" d="M139.5,-73.4551C139.5,-65.3828 139.5,-55.6764 139.5,-46.6817"/>
<polygon fill="#000000" stroke="#000000" points="143.0001,-46.5903 139.5,-36.5904 136.0001,-46.5904 143.0001,-46.5903"/>
</g>
</g>
</svg>
