<?xml version="1.0" encoding="utf-8" standalone="no"?>
<!DOCTYPE svg PUBLIC "-//W3C//DTD SVG 1.1//EN"
  "http://www.w3.org/Graphics/SVG/1.1/DTD/svg11.dtd">
<!-- Created with matplotlib (http://matplotlib.org/) -->
<svg height="345.6pt" version="1.1" viewBox="0 0 460.8 345.6" width="460.8pt" xmlns="http://www.w3.org/2000/svg" xmlns:xlink="http://www.w3.org/1999/xlink">
 <defs>
  <style type="text/css">
*{stroke-linecap:butt;stroke-linejoin:round;}
  </style>
 </defs>
 <g id="figure_1">
  <g id="patch_1">
   <path d="M 0 345.6 
L 460.8 345.6 
L 460.8 0 
L 0 0 
z
" style="fill:#ffffff;"/>
  </g>
  <g id="axes_1">
   <g id="patch_2">
    <path d="M 57.6 307.584 
L 414.72 307.584 
L 414.72 41.472 
L 57.6 41.472 
z
" style="fill:#ffffff;"/>
   </g>
   <g id="matplotlib.axis_1">
    <g id="xtick_1">
     <g id="line2d_1">
      <path clip-path="url(#p9f9648f462)" d="M 73.832727 307.584 
L 73.832727 41.472 
" style="fill:none;stroke:#b0b0b0;stroke-linecap:square;stroke-width:0.8;"/>
     </g>
     <g id="line2d_2">
      <defs>
       <path d="M 0 0 
L 0 3.5 
" id="m21c5ac20d3" style="stroke:#000000;stroke-width:0.8;"/>
      </defs>
      <g>
       <use style="stroke:#000000;stroke-width:0.8;" x="73.832727" xlink:href="#m21c5ac20d3" y="307.584"/>
      </g>
     </g>
     <g id="text_1">
      <text style="font-family:DejaVu Sans;font-size:10px;font-style:normal;font-weight:normal;text-anchor:middle;" transform="rotate(-0, 73.832727, 322.182437)" x="73.832727" y="322.182437">0</text>
     </g>
    </g>
    <g id="xtick_2">
     <g id="line2d_3">
      <path clip-path="url(#p9f9648f462)" d="M 124.56 307.584 
L 124.56 41.472 
" style="fill:none;stroke:#b0b0b0;stroke-linecap:square;stroke-width:0.8;"/>
     </g>
     <g id="line2d_4">
      <g>
       <use style="stroke:#000000;stroke-width:0.8;" x="124.56" xlink:href="#m21c5ac20d3" y="307.584"/>
      </g>
     </g>
     <g id="text_2">
      <text style="font-family:DejaVu Sans;font-size:10px;font-style:normal;font-weight:normal;text-anchor:middle;" transform="rotate(-0, 124.56, 322.182437)" x="124.56" y="322.182437">5</text>
     </g>
    </g>
    <g id="xtick_3">
     <g id="line2d_5">
      <path clip-path="url(#p9f9648f462)" d="M 175.287273 307.584 
L 175.287273 41.472 
" style="fill:none;stroke:#b0b0b0;stroke-linecap:square;stroke-width:0.8;"/>
     </g>
     <g id="line2d_6">
      <g>
       <use style="stroke:#000000;stroke-width:0.8;" x="175.287273" xlink:href="#m21c5ac20d3" y="307.584"/>
      </g>
     </g>
     <g id="text_3">
      <text style="font-family:DejaVu Sans;font-size:10px;font-style:normal;font-weight:normal;text-anchor:middle;" transform="rotate(-0, 175.287273, 322.182437)" x="175.287273" y="322.182437">10</text>
     </g>
    </g>
    <g id="xtick_4">
     <g id="line2d_7">
      <path clip-path="url(#p9f9648f462)" d="M 226.014545 307.584 
L 226.014545 41.472 
" style="fill:none;stroke:#b0b0b0;stroke-linecap:square;stroke-width:0.8;"/>
     </g>
     <g id="line2d_8">
      <g>
       <use style="stroke:#000000;stroke-width:0.8;" x="226.014545" xlink:href="#m21c5ac20d3" y="307.584"/>
      </g>
     </g>
     <g id="text_4">
      <text style="font-family:DejaVu Sans;font-size:10px;font-style:normal;font-weight:normal;text-anchor:middle;" transform="rotate(-0, 226.014545, 322.182437)" x="226.014545" y="322.182437">15</text>
     </g>
    </g>
    <g id="xtick_5">
     <g id="line2d_9">
      <path clip-path="url(#p9f9648f462)" d="M 276.741818 307.584 
L 276.741818 41.472 
" style="fill:none;stroke:#b0b0b0;stroke-linecap:square;stroke-width:0.8;"/>
     </g>
     <g id="line2d_10">
      <g>
       <use style="stroke:#000000;stroke-width:0.8;" x="276.741818" xlink:href="#m21c5ac20d3" y="307.584"/>
      </g>
     </g>
     <g id="text_5">
      <text style="font-family:DejaVu Sans;font-size:10px;font-style:normal;font-weight:normal;text-anchor:middle;" transform="rotate(-0, 276.741818, 322.182437)" x="276.741818" y="322.182437">20</text>
     </g>
    </g>
    <g id="xtick_6">
     <g id="line2d_11">
      <path clip-path="url(#p9f9648f462)" d="M 327.469091 307.584 
L 327.469091 41.472 
" style="fill:none;stroke:#b0b0b0;stroke-linecap:square;stroke-width:0.8;"/>
     </g>
     <g id="line2d_12">
      <g>
       <use style="stroke:#000000;stroke-width:0.8;" x="327.469091" xlink:href="#m21c5ac20d3" y="307.584"/>
      </g>
     </g>
     <g id="text_6">
      <text style="font-family:DejaVu Sans;font-size:10px;font-style:normal;font-weight:normal;text-anchor:middle;" transform="rotate(-0, 327.469091, 322.182437)" x="327.469091" y="322.182437">25</text>
     </g>
    </g>
    <g id="xtick_7">
     <g id="line2d_13">
      <path clip-path="url(#p9f9648f462)" d="M 378.196364 307.584 
L 378.196364 41.472 
" style="fill:none;stroke:#b0b0b0;stroke-linecap:square;stroke-width:0.8;"/>
     </g>
     <g id="line2d_14">
      <g>
       <use style="stroke:#000000;stroke-width:0.8;" x="378.196364" xlink:href="#m21c5ac20d3" y="307.584"/>
      </g>
     </g>
     <g id="text_7">
      <text style="font-family:DejaVu Sans;font-size:10px;font-style:normal;font-weight:normal;text-anchor:middle;" transform="rotate(-0, 378.196364, 322.182437)" x="378.196364" y="322.182437">30</text>
     </g>
    </g>
   </g>
   <g id="matplotlib.axis_2">
    <g id="ytick_1">
     <g id="line2d_15">
      <path clip-path="url(#p9f9648f462)" d="M 57.6 297.722633 
L 414.72 297.722633 
" style="fill:none;stroke:#b0b0b0;stroke-linecap:square;stroke-width:0.8;"/>
     </g>
     <g id="line2d_16">
      <defs>
       <path d="M 0 0 
L -3.5 0 
" id="m3492a77f9e" style="stroke:#000000;stroke-width:0.8;"/>
      </defs>
      <g>
       <use style="stroke:#000000;stroke-width:0.8;" x="57.6" xlink:href="#m3492a77f9e" y="297.722633"/>
      </g>
     </g>
     <g id="text_8">
      <text style="font-family:DejaVu Sans;font-size:10px;font-style:normal;font-weight:normal;text-anchor:end;" transform="rotate(-0, 50.6, 301.521851)" x="50.6" y="301.521851">0.24</text>
     </g>
    </g>
    <g id="ytick_2">
     <g id="line2d_17">
      <path clip-path="url(#p9f9648f462)" d="M 57.6 254.852241 
L 414.72 254.852241 
" style="fill:none;stroke:#b0b0b0;stroke-linecap:square;stroke-width:0.8;"/>
     </g>
     <g id="line2d_18">
      <g>
       <use style="stroke:#000000;stroke-width:0.8;" x="57.6" xlink:href="#m3492a77f9e" y="254.852241"/>
      </g>
     </g>
     <g id="text_9">
      <text style="font-family:DejaVu Sans;font-size:10px;font-style:normal;font-weight:normal;text-anchor:end;" transform="rotate(-0, 50.6, 258.651459)" x="50.6" y="258.651459">0.26</text>
     </g>
    </g>
    <g id="ytick_3">
     <g id="line2d_19">
      <path clip-path="url(#p9f9648f462)" d="M 57.6 211.981849 
L 414.72 211.981849 
" style="fill:none;stroke:#b0b0b0;stroke-linecap:square;stroke-width:0.8;"/>
     </g>
     <g id="line2d_20">
      <g>
       <use style="stroke:#000000;stroke-width:0.8;" x="57.6" xlink:href="#m3492a77f9e" y="211.981849"/>
      </g>
     </g>
     <g id="text_10">
      <text style="font-family:DejaVu Sans;font-size:10px;font-style:normal;font-weight:normal;text-anchor:end;" transform="rotate(-0, 50.6, 215.781067)" x="50.6" y="215.781067">0.28</text>
     </g>
    </g>
    <g id="ytick_4">
     <g id="line2d_21">
      <path clip-path="url(#p9f9648f462)" d="M 57.6 169.111457 
L 414.72 169.111457 
" style="fill:none;stroke:#b0b0b0;stroke-linecap:square;stroke-width:0.8;"/>
     </g>
     <g id="line2d_22">
      <g>
       <use style="stroke:#000000;stroke-width:0.8;" x="57.6" xlink:href="#m3492a77f9e" y="169.111457"/>
      </g>
     </g>
     <g id="text_11">
      <text style="font-family:DejaVu Sans;font-size:10px;font-style:normal;font-weight:normal;text-anchor:end;" transform="rotate(-0, 50.6, 172.910675)" x="50.6" y="172.910675">0.30</text>
     </g>
    </g>
    <g id="ytick_5">
     <g id="line2d_23">
      <path clip-path="url(#p9f9648f462)" d="M 57.6 126.241065 
L 414.72 126.241065 
" style="fill:none;stroke:#b0b0b0;stroke-linecap:square;stroke-width:0.8;"/>
     </g>
     <g id="line2d_24">
      <g>
       <use style="stroke:#000000;stroke-width:0.8;" x="57.6" xlink:href="#m3492a77f9e" y="126.241065"/>
      </g>
     </g>
     <g id="text_12">
      <text style="font-family:DejaVu Sans;font-size:10px;font-style:normal;font-weight:normal;text-anchor:end;" transform="rotate(-0, 50.6, 130.040283)" x="50.6" y="130.040283">0.32</text>
     </g>
    </g>
    <g id="ytick_6">
     <g id="line2d_25">
      <path clip-path="url(#p9f9648f462)" d="M 57.6 83.370673 
L 414.72 83.370673 
" style="fill:none;stroke:#b0b0b0;stroke-linecap:square;stroke-width:0.8;"/>
     </g>
     <g id="line2d_26">
      <g>
       <use style="stroke:#000000;stroke-width:0.8;" x="57.6" xlink:href="#m3492a77f9e" y="83.370673"/>
      </g>
     </g>
     <g id="text_13">
      <text style="font-family:DejaVu Sans;font-size:10px;font-style:normal;font-weight:normal;text-anchor:end;" transform="rotate(-0, 50.6, 87.169891)" x="50.6" y="87.169891">0.34</text>
     </g>
    </g>
   </g>
   <g id="line2d_27">
    <path clip-path="url(#p9f9648f462)" d="M 73.832727 65.759493 
L 83.978182 209.152899 
L 94.123636 238.347898 
L 104.269091 250.914923 
L 114.414545 254.817221 
L 124.56 269.362608 
L 134.705455 270.742643 
L 144.850909 276.231666 
L 154.996364 280.573696 
L 165.141818 281.402972 
L 175.287273 282.828184 
L 185.432727 283.50938 
L 195.578182 283.072647 
L 205.723636 285.304793 
L 215.869091 287.832679 
L 226.014545 287.143637 
L 236.16 289.775144 
L 246.305455 288.389762 
L 256.450909 292.092486 
L 266.596364 290.52754 
L 276.741818 291.696018 
L 286.887273 288.107572 
L 297.032727 292.968185 
L 307.178182 294.285889 
L 317.323636 294.575107 
L 327.469091 294.882265 
L 337.614545 290.995194 
L 347.76 294.98681 
L 357.905455 295.488 
" style="fill:none;stroke:#1f77b4;stroke-linecap:square;stroke-width:1.5;"/>
   </g>
   <g id="line2d_28">
    <path clip-path="url(#p9f9648f462)" d="M 73.832727 69.488324 
L 83.978182 205.976282 
L 94.123636 239.212555 
L 104.269091 249.528252 
L 114.414545 257.143225 
L 124.56 262.772536 
L 134.705455 265.325113 
L 144.850909 275.112219 
L 154.996364 272.469025 
L 165.141818 276.310815 
L 175.287273 274.725704 
L 185.432727 278.409038 
L 195.578182 281.300358 
L 205.723636 280.713748 
L 215.869091 284.011951 
L 226.014545 280.847772 
L 236.16 284.868594 
L 246.305455 286.974387 
L 256.450909 288.078009 
L 266.596364 288.482949 
L 276.741818 286.742054 
L 286.887273 290.274371 
L 297.032727 288.103931 
L 307.178182 288.260929 
L 317.323636 290.027771 
L 327.469091 288.611596 
" style="fill:none;stroke:#ff7f0e;stroke-linecap:square;stroke-width:1.5;"/>
   </g>
   <g id="line2d_29">
    <path clip-path="url(#p9f9648f462)" d="M 73.832727 67.634594 
L 83.978182 211.238819 
L 94.123636 236.957192 
L 104.269091 251.699463 
L 114.414545 260.519799 
L 124.56 260.811341 
L 134.705455 265.813553 
L 144.850909 269.281652 
L 154.996364 276.930358 
L 165.141818 276.154799 
L 175.287273 279.067891 
L 185.432727 282.498239 
L 195.578182 282.354379 
L 205.723636 282.530252 
L 215.869091 285.027091 
L 226.014545 280.736995 
L 236.16 286.377117 
L 246.305455 287.082305 
L 256.450909 283.526641 
L 266.596364 289.725712 
L 276.741818 287.182904 
" style="fill:none;stroke:#2ca02c;stroke-linecap:square;stroke-width:1.5;"/>
   </g>
   <g id="line2d_30">
    <path clip-path="url(#p9f9648f462)" d="M 73.832727 53.568 
L 83.978182 198.386564 
L 94.123636 220.2448 
L 104.269091 233.543487 
L 114.414545 245.189816 
L 124.56 249.626729 
L 134.705455 253.071231 
L 144.850909 254.998677 
L 154.996364 258.360154 
L 165.141818 264.606505 
L 175.287273 262.114126 
L 185.432727 266.644018 
L 195.578182 265.488206 
L 205.723636 266.30415 
L 215.869091 266.746104 
L 226.014545 270.470304 
L 236.16 269.674238 
L 246.305455 277.403028 
L 256.450909 274.483836 
L 266.596364 271.200353 
L 276.741818 273.812222 
L 286.887273 274.012993 
L 297.032727 276.51514 
L 307.178182 279.919211 
L 317.323636 277.352568 
L 327.469091 276.45002 
L 337.614545 278.806994 
L 347.76 278.361278 
L 357.905455 277.914458 
L 368.050909 277.959051 
L 378.196364 278.510547 
L 388.341818 279.729671 
L 398.487273 276.742714 
" style="fill:none;stroke:#d62728;stroke-linecap:square;stroke-width:1.5;"/>
   </g>
   <g id="line2d_31">
    <path clip-path="url(#p9f9648f462)" d="M 73.832727 68.807953 
L 83.978182 202.319436 
L 94.123636 224.138514 
L 104.269091 237.927045 
L 114.414545 245.18499 
L 124.56 249.697716 
L 134.705455 253.093694 
L 144.850909 256.146437 
L 154.996364 262.567814 
L 165.141818 262.872121 
L 175.287273 265.402211 
L 185.432727 264.707522 
L 195.578182 266.840776 
L 205.723636 269.212953 
L 215.869091 269.785444 
L 226.014545 270.725571 
L 236.16 272.06368 
" style="fill:none;stroke:#9467bd;stroke-linecap:square;stroke-width:1.5;"/>
   </g>
   <g id="patch_3">
    <path d="M 57.6 307.584 
L 57.6 41.472 
" style="fill:none;stroke:#000000;stroke-linecap:square;stroke-linejoin:miter;stroke-width:0.8;"/>
   </g>
   <g id="patch_4">
    <path d="M 414.72 307.584 
L 414.72 41.472 
" style="fill:none;stroke:#000000;stroke-linecap:square;stroke-linejoin:miter;stroke-width:0.8;"/>
   </g>
   <g id="patch_5">
    <path d="M 57.6 307.584 
L 414.72 307.584 
" style="fill:none;stroke:#000000;stroke-linecap:square;stroke-linejoin:miter;stroke-width:0.8;"/>
   </g>
   <g id="patch_6">
    <path d="M 57.6 41.472 
L 414.72 41.472 
" style="fill:none;stroke:#000000;stroke-linecap:square;stroke-linejoin:miter;stroke-width:0.8;"/>
   </g>
   <g id="text_14">
    <text style="font-family:DejaVu Sans;font-size:12px;font-style:normal;font-weight:normal;text-anchor:middle;" transform="rotate(-0, 236.16, 35.472)" x="236.16" y="35.472">Loss vs Epochs</text>
   </g>
   <g id="legend_1">
    <g id="patch_7">
     <path d="M 294.5673 240.5295 
L 402.624 240.5295 
Q 406.08 240.5295 406.08 237.0735 
L 406.08 111.9825 
Q 406.08 108.5265 402.624 108.5265 
L 294.5673 108.5265 
Q 291.1113 108.5265 291.1113 111.9825 
L 291.1113 237.0735 
Q 291.1113 240.5295 294.5673 240.5295 
z
" style="fill:#ffffff;opacity:0.8;stroke:#cccccc;stroke-linejoin:miter;"/>
    </g>
    <g id="line2d_32">
     <path d="M 298.0233 122.5206 
L 332.5833 122.5206 
" style="fill:none;stroke:#1f77b4;stroke-linecap:square;stroke-width:1.5;"/>
    </g>
    <g id="line2d_33"/>
    <g id="text_15">
     <text style="font-family:DejaVu Sans;font-size:17.28px;font-style:normal;font-weight:normal;text-anchor:start;" transform="rotate(-0, 346.4073, 128.5686)" x="346.4073" y="128.5686">Fold 1</text>
    </g>
    <g id="line2d_34">
     <path d="M 298.0233 147.8844 
L 332.5833 147.8844 
" style="fill:none;stroke:#ff7f0e;stroke-linecap:square;stroke-width:1.5;"/>
    </g>
    <g id="line2d_35"/>
    <g id="text_16">
     <text style="font-family:DejaVu Sans;font-size:17.28px;font-style:normal;font-weight:normal;text-anchor:start;" transform="rotate(-0, 346.4073, 153.9324)" x="346.4073" y="153.9324">Fold 2</text>
    </g>
    <g id="line2d_36">
     <path d="M 298.0233 173.2482 
L 332.5833 173.2482 
" style="fill:none;stroke:#2ca02c;stroke-linecap:square;stroke-width:1.5;"/>
    </g>
    <g id="line2d_37"/>
    <g id="text_17">
     <text style="font-family:DejaVu Sans;font-size:17.28px;font-style:normal;font-weight:normal;text-anchor:start;" transform="rotate(-0, 346.4073, 179.2962)" x="346.4073" y="179.2962">Fold 3</text>
    </g>
    <g id="line2d_38">
     <path d="M 298.0233 198.612 
L 332.5833 198.612 
" style="fill:none;stroke:#d62728;stroke-linecap:square;stroke-width:1.5;"/>
    </g>
    <g id="line2d_39"/>
    <g id="text_18">
     <text style="font-family:DejaVu Sans;font-size:17.28px;font-style:normal;font-weight:normal;text-anchor:start;" transform="rotate(-0, 346.4073, 204.66)" x="346.4073" y="204.66">Fold 4</text>
    </g>
    <g id="line2d_40">
     <path d="M 298.0233 223.9758 
L 332.5833 223.9758 
" style="fill:none;stroke:#9467bd;stroke-linecap:square;stroke-width:1.5;"/>
    </g>
    <g id="line2d_41"/>
    <g id="text_19">
     <text style="font-family:DejaVu Sans;font-size:17.28px;font-style:normal;font-weight:normal;text-anchor:start;" transform="rotate(-0, 346.4073, 230.0238)" x="346.4073" y="230.0238">Fold 5</text>
    </g>
   </g>
  </g>
 </g>
 <defs>
  <clipPath id="p9f9648f462">
   <rect height="266.112" width="357.12" x="57.6" y="41.472"/>
  </clipPath>
 </defs>
</svg>
